<svg width="169" height="175" viewBox="0 0 169 175" fill="none" xmlns="http://www.w3.org/2000/svg">
<g clip-path="url(#clip0_146_56)">
<path fill-rule="evenodd" clip-rule="evenodd" d="M64.4685 27.8856C66.8989 17.723 80.671 17.723 82.6963 27.8856C79.0507 27.4791 76.2153 25.4466 68.9242 26.6661C67.304 27.0726 65.6837 27.4791 64.4685 27.8856Z" fill="white" stroke="#3B7A67" stroke-width="3"/>
<path fill-rule="evenodd" clip-rule="evenodd" d="M117.937 37.2353V21.7881C119.152 22.6011 120.772 23.4141 122.392 23.8206L132.924 28.6987C133.734 29.1052 134.544 29.5117 135.354 29.5117C134.544 30.3247 134.139 30.3247 133.329 30.7312L126.848 33.5767C125.228 33.9832 124.013 34.7963 122.392 35.2028C121.582 35.6093 119.152 37.2353 117.937 37.2353Z" fill="white" stroke="#3B7A67" stroke-width="3"/>
<path fill-rule="evenodd" clip-rule="evenodd" d="M49.4813 64.4045H48.2661C48.2661 54.2419 48.2661 47.7378 55.9623 40.0142C63.2534 32.6971 75.0002 30.6646 84.7217 35.5426C86.3419 36.3557 87.9622 37.1687 89.1773 37.9817C90.3925 39.2012 91.6077 40.4207 92.8229 41.6402C94.0381 43.2662 94.4431 44.0792 95.6583 45.7053C98.8988 51.3963 98.8988 57.0874 98.8988 63.998C96.4684 63.998 94.0381 62.7785 92.8229 61.559C85.1267 56.6809 86.747 48.9573 85.9368 47.3313C85.1267 44.8923 80.6711 44.0792 79.8609 48.9573C79.0508 53.8354 75.0002 57.4939 70.9496 59.5264C65.2787 62.372 57.5826 64.4045 49.4813 64.4045Z" fill="white" stroke="#3B7A67" stroke-width="3"/>
<path fill-rule="evenodd" clip-rule="evenodd" d="M42.1902 77.4786V77.0721C42.1902 75.4461 43.4054 74.2266 45.0257 74.2266V80.3241C43.4054 80.3241 42.1902 79.1046 42.1902 77.4786Z" fill="white" stroke="#3B7A67" stroke-width="3"/>
<path fill-rule="evenodd" clip-rule="evenodd" d="M102.139 80.3241V74.2266C103.759 74.2266 104.975 75.4461 104.975 77.0721V77.4786C104.975 79.1046 103.759 80.3241 102.139 80.3241Z" fill="white" stroke="#3B7A67" stroke-width="3"/>
<path fill-rule="evenodd" clip-rule="evenodd" d="M51.5066 79.5118V70.5687C57.9876 70.5687 64.4686 69.3492 69.3293 67.3166C77.8356 64.4711 79.4559 60.8125 82.2913 59.1865C84.3166 63.2516 87.5571 66.5036 91.6077 68.5361C92.0128 68.9426 93.2279 69.3492 93.633 69.3492C96.4684 70.5687 95.6583 68.9426 95.6583 79.5118C95.6583 86.8289 92.8229 94.146 86.747 98.211C85.5318 99.4305 84.3166 99.837 83.1014 100.65C77.0255 103.496 70.1394 103.089 64.4686 100.65C63.2534 99.837 62.0382 99.4305 60.823 98.6175C54.7471 94.5525 51.5066 87.2354 51.5066 79.5118Z" fill="white" stroke="#3B7A67" stroke-width="3"/>
<path fill-rule="evenodd" clip-rule="evenodd" d="M111.861 103.089V92.9264C111.861 89.2679 117.532 90.0809 120.772 90.0809C122.392 90.0809 124.013 91.3004 124.013 92.9264V105.935H114.696C113.076 105.935 111.861 104.309 111.861 103.089Z" fill="white" stroke="#3B7A67" stroke-width="3"/>
<path fill-rule="evenodd" clip-rule="evenodd" d="M57.5825 115.284C57.5825 116.504 57.5825 116.91 57.9876 117.723C57.9876 118.536 58.3926 118.943 58.3926 119.756C57.9876 119.349 57.1774 118.943 56.3673 118.536C54.7471 117.723 53.5319 117.317 52.7218 115.691C50.6965 113.252 51.5066 111.626 55.1521 110C56.7724 109.187 57.9876 109.187 60.823 109.187C60.823 110.813 57.5825 111.219 57.5825 115.284Z" fill="white" stroke="#3B7A67" stroke-width="3"/>
<path fill-rule="evenodd" clip-rule="evenodd" d="M86.3419 109.187C88.7723 109.187 90.3925 109.187 92.0128 110C96.4685 112.032 96.4685 114.878 92.8229 117.723C91.6077 118.536 90.3925 118.943 88.7723 119.756C89.1773 117.317 89.9875 116.504 89.1773 113.658C88.3672 110.406 86.747 110.813 86.3419 109.187Z" fill="white" stroke="#3B7A67" stroke-width="3"/>
<path fill-rule="evenodd" clip-rule="evenodd" d="M119.962 112.438H128.873C128.873 113.658 130.899 116.91 131.304 118.13C132.519 120.162 140.215 134.796 140.215 136.016C140.215 138.455 140.62 143.739 137.38 143.739H121.177V129.512L122.797 132.764C123.608 133.983 124.013 134.796 124.823 136.016L130.089 133.17C130.089 131.951 121.582 115.284 119.962 112.438Z" fill="white" stroke="#3B7A67" stroke-width="3"/>
<path fill-rule="evenodd" clip-rule="evenodd" d="M67.304 112.032V108.373C68.9243 108.373 70.1395 109.186 72.1648 109.186H75.4053C77.0255 109.186 78.2407 108.373 79.8609 108.373C79.8609 110.812 79.4559 112.845 80.266 115.284C80.6711 116.097 81.4812 117.316 81.4812 118.129C80.6711 118.942 79.8609 119.755 78.2407 120.568C75.4053 122.194 72.1648 122.194 68.9243 120.568C67.304 119.755 66.4939 118.942 65.2787 118.129C66.4939 116.097 67.304 114.877 67.304 112.032Z" fill="white" stroke="#3B7A67" stroke-width="3"/>
<path fill-rule="evenodd" clip-rule="evenodd" d="M51.5066 140.488C51.5066 145.366 51.1016 146.992 55.9623 146.992C63.2534 146.992 68.5192 144.146 72.1647 138.861C72.5698 138.455 72.5698 138.048 72.9749 137.642C72.9749 137.642 73.3799 137.642 73.3799 137.235C73.785 136.829 73.3799 137.235 73.785 136.829C74.1901 138.861 78.2407 142.52 80.266 144.146C82.2913 145.366 95.6583 150.65 95.6583 143.74C95.6583 138.048 95.2532 133.983 92.0128 129.105C90.7976 127.886 89.9874 127.073 89.5824 126.26C91.2026 125.447 93.2279 125.447 96.0634 123.414C98.8988 121.382 97.6836 122.195 104.57 122.195C104.975 122.195 104.975 122.195 104.975 122.601V144.146H111.861V122.601C113.481 122.601 113.886 123.008 114.696 123.008V150.244C104.57 150.244 104.975 149.431 104.975 160H32.4687V144.959C32.4687 140.488 33.2789 137.642 34.8991 134.39C36.1143 131.544 38.1396 128.699 40.57 127.073C43.0003 125.04 45.8358 123.414 49.0763 122.601C50.2914 122.195 50.2914 123.008 53.1269 124.634C54.7471 125.447 56.3674 125.447 57.9876 126.26C56.7724 127.479 54.7471 129.105 53.5319 132.357C52.7218 134.39 51.5066 136.829 51.5066 140.488ZM41.7851 156.748H54.7471V150.244H41.7851V156.748Z" fill="white" stroke="#3B7A67" stroke-width="3"/>
<path fill-rule="evenodd" clip-rule="evenodd" d="M57.9876 140.488C58.3926 138.456 58.3926 137.643 59.2028 135.61C60.823 131.139 65.6837 128.293 70.1394 128.293C68.5192 135.204 64.8736 138.862 57.9876 140.488Z" fill="white" stroke="#3B7A67" stroke-width="3"/>
<path fill-rule="evenodd" clip-rule="evenodd" d="M77.4305 128.293C81.4812 128.293 86.3419 131.139 88.3672 135.61C88.7723 136.423 88.7723 137.236 89.1773 138.049C89.1773 138.862 89.1773 139.675 89.5824 140.488C85.5318 139.675 83.9115 138.862 81.4812 136.423C79.4558 134.391 77.8356 131.545 77.4305 128.293Z" fill="white" stroke="#3B7A67" stroke-width="3"/>
<rect x="116.106" y="37.6699" width="3.41387" height="51.1891" fill="#3B7A67"/>
</g>
<defs>
<clipPath id="clip0_146_56">
<rect width="111" height="144" fill="white" transform="translate(29 16)"/>
</clipPath>
</defs>
</svg>
