<svg width="110" height="142" viewBox="0 0 110 142" fill="none" xmlns="http://www.w3.org/2000/svg">
<path fill-rule="evenodd" clip-rule="evenodd" d="M34.4686 9.88564C36.8989 -0.276985 50.671 -0.276985 52.6963 9.88564C49.0508 9.47914 46.2153 7.44661 38.9242 8.66613C37.304 9.07263 35.6838 9.47914 34.4686 9.88564Z" fill="white" stroke="#3B7A67" stroke-width="3"/>
<path fill-rule="evenodd" clip-rule="evenodd" d="M87.9367 19.2353V3.78809C89.1519 4.6011 90.7721 5.41411 92.3924 5.82061L102.924 10.6987C103.734 11.1052 104.544 11.5117 105.354 11.5117C104.544 12.3247 104.139 12.3247 103.329 12.7312L96.8481 15.5767C95.2278 15.9832 94.0126 16.7963 92.3924 17.2028C91.5823 17.6093 89.1519 19.2353 87.9367 19.2353Z" fill="white" stroke="#3B7A67" stroke-width="3"/>
<path fill-rule="evenodd" clip-rule="evenodd" d="M19.4814 46.4045H18.2662C18.2662 36.2419 18.2662 29.7378 25.9623 22.0142C33.2534 14.6971 45.0002 12.6646 54.7217 17.5426C56.3419 18.3557 57.9622 19.1687 59.1774 19.9817C60.3926 21.2012 61.6077 22.4207 62.8229 23.6402C64.0381 25.2662 64.4432 26.0792 65.6584 27.7053C68.8988 33.3963 68.8988 39.0874 68.8988 45.998C66.4685 45.998 64.0381 44.7785 62.8229 43.559C55.1268 38.6809 56.747 30.9573 55.9369 29.3313C55.1268 26.8923 50.6711 26.0792 49.861 30.9573C49.0508 35.8354 45.0002 39.4939 40.9496 41.5264C35.2788 44.372 27.5826 46.4045 19.4814 46.4045Z" fill="white" stroke="#3B7A67" stroke-width="3"/>
<path fill-rule="evenodd" clip-rule="evenodd" d="M12.1902 59.4786V59.0721C12.1902 57.4461 13.4054 56.2266 15.0257 56.2266V62.3241C13.4054 62.3241 12.1902 61.1046 12.1902 59.4786Z" fill="white" stroke="#3B7A67" stroke-width="3"/>
<path fill-rule="evenodd" clip-rule="evenodd" d="M72.1393 62.3241V56.2266C73.7595 56.2266 74.9747 57.4461 74.9747 59.0721V59.4786C74.9747 61.1046 73.7595 62.3241 72.1393 62.3241Z" fill="white" stroke="#3B7A67" stroke-width="3"/>
<path fill-rule="evenodd" clip-rule="evenodd" d="M21.5067 61.5118V52.5687C27.9876 52.5687 34.4686 51.3492 39.3293 49.3166C47.8356 46.4711 49.4559 42.8125 52.2913 41.1865C54.3166 45.2516 57.5571 48.5036 61.6077 50.5361C62.0128 50.9426 63.228 51.3492 63.633 51.3492C66.4685 52.5687 65.6583 50.9426 65.6583 61.5118C65.6583 68.8289 62.8229 76.146 56.747 80.211C55.5318 81.4305 54.3166 81.837 53.1014 82.65C47.0255 85.4956 40.1395 85.0891 34.4686 82.65C33.2534 81.837 32.0382 81.4305 30.8231 80.6175C24.7471 76.5525 21.5067 69.2354 21.5067 61.5118Z" fill="white" stroke="#3B7A67" stroke-width="3"/>
<path fill-rule="evenodd" clip-rule="evenodd" d="M74.9748 75.7391C74.9748 84.6823 73.7596 90.3733 81.8608 93.6254C83.481 94.4384 83.076 95.2514 84.6962 98.5034C83.8861 98.5034 82.6709 98.0969 81.8608 98.0969C81.0507 98.0969 79.4304 98.0969 78.6203 97.6904L71.7343 97.2839C73.3545 94.4384 70.5191 90.3733 68.8988 89.1538C67.2786 87.1213 64.4432 85.4953 61.6077 85.0888C62.0128 84.2757 64.4432 82.6497 67.6836 78.1782C68.8988 76.1456 71.3292 71.6741 71.3292 68.8286C74.1646 68.8286 76.1899 68.0155 77.8102 66.796C78.6203 66.3895 79.4304 65.5765 79.8355 64.7635L81.4557 61.918V65.983C77.8102 68.0155 74.9748 70.4546 74.9748 75.7391Z" fill="white" stroke="#3B7A67" stroke-width="3"/>
<path fill-rule="evenodd" clip-rule="evenodd" d="M81.8607 85.089V74.9264C81.8607 71.2679 87.5316 72.0809 90.7721 72.0809C92.3923 72.0809 94.0126 73.3004 94.0126 74.9264V87.9346H84.6961C83.0759 87.9346 81.8607 86.3086 81.8607 85.089Z" fill="white" stroke="#3B7A67" stroke-width="3"/>
<path fill-rule="evenodd" clip-rule="evenodd" d="M27.5825 97.2841C27.5825 98.5036 27.5825 98.9101 27.9876 99.7231C27.9876 100.536 28.3926 100.943 28.3926 101.756C27.9876 101.349 27.1774 100.943 26.3673 100.536C24.7471 99.7231 23.5319 99.3166 22.7218 97.6906C20.6965 95.2516 21.5066 93.6256 25.1521 91.9995C26.7724 91.1865 27.9876 91.1865 30.823 91.1865C30.823 92.8125 27.5825 93.219 27.5825 97.2841Z" fill="white" stroke="#3B7A67" stroke-width="3"/>
<path fill-rule="evenodd" clip-rule="evenodd" d="M56.3419 91.1865C58.7723 91.1865 60.3925 91.1865 62.0128 91.9995C66.4685 94.0321 66.4685 96.8776 62.8229 99.7231C61.6077 100.536 60.3925 100.943 58.7723 101.756C59.1773 99.3166 59.9875 98.5036 59.1773 95.6581C58.3672 92.406 56.747 92.8125 56.3419 91.1865Z" fill="white" stroke="#3B7A67" stroke-width="3"/>
<path fill-rule="evenodd" clip-rule="evenodd" d="M89.962 94.4385H98.8733C98.8733 95.658 100.899 98.91 101.304 100.13C102.519 102.162 110.215 116.796 110.215 118.016C110.215 120.455 110.62 125.739 107.38 125.739H91.1772V111.512L92.7974 114.764C93.6075 115.983 94.0126 116.796 94.8227 118.016L100.089 115.17C100.089 113.951 91.5822 97.284 89.962 94.4385Z" fill="white" stroke="#3B7A67" stroke-width="3"/>
<path fill-rule="evenodd" clip-rule="evenodd" d="M37.3041 94.0316V90.373C38.9243 90.373 40.1395 91.1861 42.1648 91.1861H45.4053C47.0255 91.1861 48.2407 90.373 49.861 90.373C49.861 92.8121 49.4559 94.8446 50.266 97.2836C50.6711 98.0966 51.4812 99.3162 51.4812 100.129C50.6711 100.942 49.861 101.755 48.2407 102.568C45.4053 104.194 42.1648 104.194 38.9243 102.568C37.3041 101.755 36.4939 100.942 35.2787 100.129C36.4939 98.0966 37.3041 96.8771 37.3041 94.0316Z" fill="white" stroke="#3B7A67" stroke-width="3"/>
<path fill-rule="evenodd" clip-rule="evenodd" d="M21.5066 122.488C21.5066 127.366 21.1016 128.992 25.9623 128.992C33.2534 128.992 38.5192 126.146 42.1648 120.861C42.5698 120.455 42.5698 120.048 42.9749 119.642C42.9749 119.642 43.3799 119.642 43.3799 119.235C43.785 118.829 43.3799 119.235 43.785 118.829C44.1901 120.861 48.2407 124.52 50.266 126.146C52.2913 127.366 65.6583 132.65 65.6583 125.74C65.6583 120.048 65.2533 115.983 62.0128 111.105C60.7976 109.886 59.9875 109.073 59.5824 108.26C61.2026 107.447 63.228 107.447 66.0634 105.414C68.8988 103.382 67.6836 104.195 74.5697 104.195C74.9747 104.195 74.9747 104.195 74.9747 104.601V126.146H81.8608V104.601C83.481 104.601 83.8861 105.008 84.6962 105.008V132.244C74.5697 132.244 74.9747 131.431 74.9747 142H2.46875V126.959C2.46875 122.488 3.27887 119.642 4.89912 116.39C6.1143 113.544 8.13961 110.699 10.57 109.073C13.0003 107.04 15.8358 105.414 19.0763 104.601C20.2915 104.195 20.2915 105.008 23.1269 106.634C24.7471 107.447 26.3674 107.447 27.9876 108.26C26.7724 109.479 24.7471 111.105 23.5319 114.357C22.7218 116.39 21.5066 118.829 21.5066 122.488ZM11.7852 138.748H24.7471V132.244H11.7852V138.748Z" fill="white" stroke="#3B7A67" stroke-width="3"/>
<path fill-rule="evenodd" clip-rule="evenodd" d="M27.9876 122.488C28.3927 120.456 28.3927 119.643 29.2028 117.61C30.823 113.139 35.6838 110.293 40.1395 110.293C38.5192 117.204 34.8737 120.862 27.9876 122.488Z" fill="white" stroke="#3B7A67" stroke-width="3"/>
<path fill-rule="evenodd" clip-rule="evenodd" d="M47.4305 110.293C51.4812 110.293 56.3419 113.139 58.3672 117.61C58.7723 118.423 58.7723 119.236 59.1773 120.049C59.1773 120.862 59.1773 121.675 59.5824 122.488C55.5318 121.675 53.9115 120.862 51.4812 118.423C49.4558 116.391 47.8356 113.545 47.4305 110.293Z" fill="white" stroke="#3B7A67" stroke-width="3"/>
</svg>
