<svg width="143" height="129" viewBox="0 0 143 129" fill="none" xmlns="http://www.w3.org/2000/svg">
<path d="M47.4324 23.5413H48.9324V22.0413V8.10673C49.0838 8.03495 49.2374 7.96194 49.3932 7.88785C54.2585 5.57518 61.3422 2.20801 71.5724 2.20801C81.8026 2.20801 88.8863 5.57517 93.7516 7.88784C93.9075 7.96194 94.0611 8.03495 94.2124 8.10673V22.0413V23.5413H95.7124H109.832V127.208H33.3124V23.5413H47.4324ZM87.1924 23.5413H88.6924V22.0413V12.5437V11.5568L87.7861 11.1662C83.8673 9.47738 78.2379 7.74134 71.5724 7.74134C64.907 7.74134 59.2776 9.47738 55.3588 11.1662L54.4524 11.5568V12.5437V22.0413V23.5413H55.9524H87.1924ZM122.772 127.208V23.5413H128.372C135.352 23.5413 141.072 29.2676 141.072 36.2636V114.486C141.072 121.482 135.352 127.208 128.372 127.208H122.772ZM2.07242 114.486V36.2636C2.07242 29.2676 7.79306 23.5413 14.7724 23.5413H20.3724V127.208H14.7724C7.79306 127.208 2.07242 121.482 2.07242 114.486Z" fill="white" stroke="#3B7A67" stroke-width="3"/>
</svg>
