<svg width="85" height="29" viewBox="0 0 85 29" fill="none" xmlns="http://www.w3.org/2000/svg">
<path d="M15.5859 0.5625V29H9.23828V0.5625H15.5859ZM24.2383 0.5625V5.50391H0.761719V0.5625H24.2383ZM36.9727 5.97266L29.6289 29H22.832L33.3594 0.5625H37.6562L36.9727 5.97266ZM43.0664 29L35.7031 5.97266L34.9414 0.5625H39.2969L49.8633 29H43.0664ZM42.7539 18.4141V23.3359H27.9297V18.4141H42.7539ZM57.6172 0.5625L62.6172 10.25L67.6172 0.5625H74.8828L66.7969 14.6641L75.0977 29H67.7734L62.6172 19.1367L57.4805 29H50.1367L58.457 14.6641L50.3516 0.5625H57.6172ZM84.4727 0.5625V29H78.125V0.5625H84.4727Z" fill="white"/>
</svg>
