<svg width="88" height="132" viewBox="0 0 88 132" fill="none" xmlns="http://www.w3.org/2000/svg">
<path d="M16.404 15.454L15.6911 15.8193L15.643 15.5999L14.8067 15.3421C12.6886 14.6891 11.1114 13.9956 10.0957 13.3128C9.02011 12.5898 8.92072 12.1253 8.92072 12.0074C8.92072 11.9521 8.95069 11.7111 9.3438 11.2663C9.72951 10.8298 10.3592 10.3207 11.2696 9.76398C13.0852 8.6537 15.7674 7.50362 19.1108 6.41227C25.7465 4.24626 34.7233 2.39591 43.9981 1.50634C52.906 2.30327 61.879 4.15211 68.6042 6.34208C71.9928 7.44551 74.7447 8.61448 76.6182 9.7428C77.5582 10.3089 78.2132 10.8272 78.6158 11.2719C79.0295 11.7289 79.0522 11.9664 79.0521 12.0029V12.0074C79.0521 12.1369 78.9274 12.6562 77.683 13.4423C76.519 14.1776 74.7255 14.9127 72.3416 15.5874L71.5423 15.8136L71.31 16.6112C71.1659 17.1059 70.8378 17.6552 70.2689 18.242L70.6691 17.4563L71.3561 16.1076L70.0013 15.4328C43.1015 2.03456 17.5205 14.8818 16.404 15.454ZM68.5918 21.5346L68.6205 21.4783C68.5422 22.5589 68.3405 23.8799 67.8939 25.295C65.7555 23.3852 62.8365 21.8128 59.4632 20.6449C55.0446 19.1151 49.7094 18.2303 43.9796 18.2303C38.1104 18.2303 32.6542 19.1597 28.1739 20.7606C24.6941 22.004 21.7089 23.6873 19.601 25.7364C19.0288 24.4054 18.6089 22.9232 18.3921 21.2634L19.2085 20.8607L19.2134 20.8583C19.6558 20.6388 43.2803 8.9204 67.261 20.8714L68.5918 21.5346ZM72.7501 17.0307C77.6382 15.6473 80.5521 13.9012 80.5521 12.0074L70.1631 20.3213C71.5111 19.3006 72.4097 18.1992 72.7501 17.0307Z" fill="white" stroke="#3B7A67" stroke-width="3"/>
<path d="M85.4285 121.255C84.7015 121.613 71.4262 128.079 48.3834 128.356L51.6075 123.695C51.8781 123.329 52.001 122.872 51.9547 122.42L48.9755 80.6069C48.9628 80.4119 48.9227 80.2288 48.86 80.0599L49.0375 79.6869L54.8107 67.5586L54.9563 67.2527V66.9139C54.9563 65.8256 54.4691 64.8641 53.711 64.21H54.9404C72.3621 64.21 86.487 78.1834 86.5 95.3219V120.722L85.4303 121.254C85.4297 121.254 85.4291 121.255 85.4285 121.255ZM39.5822 79.8678C39.468 80.0907 39.396 80.3405 39.3784 80.6084C39.3783 80.6099 39.3782 80.6114 39.3781 80.6129L36.6008 122.46L36.5975 122.509V122.559C36.5975 122.914 36.693 123.28 36.884 123.594L36.8937 123.61L36.9037 123.625L39.8288 128.177C29.0044 127.599 16.4422 125.627 2.36166 121.287L2.35697 121.285L1.5 121.024V95.3073C1.5 78.1842 15.6368 64.21 33.046 64.21H34.6322C33.8787 64.862 33.3977 65.8209 33.3977 66.9139V67.262L33.5511 67.5746L39.5012 79.7029L39.5822 79.8678Z" fill="white" stroke="#3B7A67" stroke-width="3"/>
<path d="M63.7092 30.6703L63.7108 30.6724L66.7063 34.5137L68.1969 36.4252L68.3403 36.1252C68.1844 41.672 66.1269 46.7483 62.7654 50.7443L62.7636 50.7465C58.2999 56.0733 51.5533 59.4774 43.9932 59.4774C37.2664 59.4774 31.1751 56.7817 26.777 52.418L26.7724 52.4134C22.5102 48.2214 19.8221 42.4779 19.6457 36.1131L19.8653 36.4754L21.1864 34.6042L23.8403 30.8451C23.8405 30.8448 23.8407 30.8446 23.8409 30.8443C24.792 29.5016 26.9879 27.8824 30.462 26.5969C33.8906 25.3283 38.4201 24.4404 43.8434 24.4404C49.1035 24.4404 53.5562 25.2981 56.9698 26.5275C60.4258 27.7722 62.6809 29.3468 63.7092 30.6703Z" fill="white" stroke="#3B7A67" stroke-width="3"/>
</svg>
