<svg width="143" height="132" viewBox="0 0 143 132" fill="none" xmlns="http://www.w3.org/2000/svg">
<path d="M135.248 67.0849C135.588 67.4184 135.993 67.6836 136.439 67.8643C136.886 68.0451 137.365 68.1375 137.849 68.1358C138.333 68.1342 138.811 68.0384 139.256 67.8545C139.702 67.6706 140.105 67.4024 140.443 67.0662C140.781 66.7301 141.048 66.3326 141.229 65.8968C141.41 65.4611 141.502 64.9951 141.5 64.5254C141.498 64.0556 141.403 63.5903 141.219 63.1558C141.035 62.7213 140.765 62.3255 140.425 61.9917L140.421 61.9885L84.465 6.80103L135.248 67.0849ZM135.248 67.0849C135.248 67.0847 135.247 67.0844 135.247 67.0842L134.248 66.0979L131.694 63.5768V67.1654V126.314C131.694 126.861 131.585 127.403 131.373 127.909C131.16 128.416 130.848 128.877 130.453 129.267C130.058 129.657 129.589 129.967 129.071 130.179C128.552 130.391 127.996 130.5 127.434 130.5H66.4624C65.9628 130.5 65.4687 130.403 65.0084 130.214C64.5482 130.025 64.1316 129.749 63.782 129.402C63.4324 129.055 63.1568 128.645 62.9699 128.195C62.783 127.745 62.6883 127.263 62.6907 126.778V126.771L62.6907 93.1601L62.6907 93.1569C62.683 89.5916 61.2448 86.1785 58.697 83.6634C56.1499 81.149 52.7015 79.7365 49.1075 79.7289H49.1044H42.4441C38.8451 79.7289 35.3894 81.1381 32.836 83.6534C30.282 86.1692 28.8398 89.5867 28.8321 93.1569V93.1601L28.8321 126.771L28.8321 126.778C28.8345 127.263 28.7398 127.745 28.5529 128.195C28.366 128.645 28.0903 129.055 27.7408 129.402C27.3912 129.749 26.9746 130.025 26.5144 130.214C26.0541 130.403 25.5599 130.5 25.0604 130.5H15.5199C14.3838 130.5 13.2981 130.054 12.5006 129.267C11.7037 128.48 11.2596 127.418 11.2596 126.314V67.1654V63.9312L8.79074 66.0203L8.0707 66.6295L8.00955 66.6813L7.95426 66.7392C7.31626 67.408 6.45448 67.8338 5.52196 67.9353C4.60209 68.0355 3.67786 67.8131 2.91099 67.3106C2.51066 67.0059 2.18025 66.6231 1.93989 66.1875C1.69356 65.7411 1.54717 65.2489 1.50965 64.7438C1.47213 64.2387 1.54425 63.7313 1.72163 63.255C1.89842 62.7804 2.17603 62.3469 2.5372 61.9839C2.53846 61.9826 2.53973 61.9814 2.541 61.9801L58.4889 6.80103C61.9328 3.40862 66.6035 1.5 71.4769 1.5C76.3501 1.5 81.0204 3.40837 84.4643 6.80037L135.248 67.0849ZM98.7553 97.8237L98.7554 97.8236C99.067 97.516 99.4856 97.3465 99.9183 97.3465H112.467C112.682 97.3465 112.895 97.3883 113.094 97.4698M98.7553 97.8237L112.577 98.8911L113.63 97.8237C113.476 97.671 113.293 97.5512 113.094 97.4698M98.7553 97.8237C98.4431 98.132 98.264 98.5542 98.264 98.9988V111.539C98.264 111.984 98.4431 112.406 98.7553 112.714L98.7554 112.715C99.0672 113.022 99.4858 113.192 99.9183 113.192H107.479C109.234 113.192 110.922 112.503 112.169 111.272C113.417 110.04 114.122 108.365 114.122 106.614V98.9988C114.122 98.7797 114.078 98.5626 113.993 98.3603L98.7553 97.8237ZM113.094 97.4698L112.526 98.8581L113.094 97.4697C113.094 97.4697 113.094 97.4698 113.094 97.4698ZM81.2909 97.4696C81.0917 97.551 80.9092 97.6709 80.7545 97.8237M81.2909 97.4696L81.8584 98.8581L81.2902 97.4699C81.2904 97.4698 81.2906 97.4697 81.2909 97.4696ZM81.2909 97.4696C81.4901 97.3882 81.7029 97.3465 81.9174 97.3465H94.4666C94.8992 97.3465 95.3179 97.516 95.6296 97.8237M80.7545 97.8237L94.5757 111.495L95.6294 112.562C95.6295 112.562 95.6295 112.562 95.6296 112.562C95.9418 112.254 96.1209 111.831 96.1209 111.387V98.9988C96.1209 98.5543 95.9418 98.132 95.6296 97.8237M80.7545 97.8237C80.5999 97.9762 80.4764 98.1583 80.3918 98.3598L80.7545 97.8237ZM95.6296 97.8237L94.5757 98.8911L95.6294 97.8236C95.6295 97.8236 95.6295 97.8237 95.6296 97.8237ZM98.7554 80.0537L98.7553 80.0538C98.443 80.3621 98.264 80.7844 98.264 81.2289V93.5917C98.264 94.0362 98.4431 94.4585 98.7553 94.7668L98.7554 94.7669C99.067 95.0745 99.4856 95.244 99.9183 95.244H112.467C112.9 95.244 113.319 95.0745 113.63 94.7669C113.943 94.4585 114.122 94.0361 114.122 93.5917V86.1537C114.122 84.4031 113.417 82.7281 112.169 81.4962C110.922 80.2649 109.234 79.5766 107.479 79.5766H99.9183C99.4858 79.5766 99.0672 79.746 98.7554 80.0537ZM81.2904 95.2984L81.2907 95.2985L80.3916 94.4077C80.3917 94.4079 80.3917 94.4082 80.3918 94.4084C80.4766 94.6103 80.6002 94.7923 80.7545 94.9446L80.7548 94.9448C80.9091 95.0971 81.0913 95.217 81.2904 95.2984ZM96.0952 81.3813C96.0952 80.9368 95.9161 80.5145 95.6039 80.2062L94.55 93.8771L95.6037 94.9446C95.6038 94.9446 95.6038 94.9445 95.6039 94.9445C95.9161 94.6362 96.0952 94.2139 96.0952 93.7694V81.3813Z" fill="white" stroke="#3B7A67" stroke-width="3"/>
</svg>
