<svg width="170" height="176" viewBox="0 0 170 176" fill="none" xmlns="http://www.w3.org/2000/svg">
<path d="M148.248 89.0849C148.588 89.4185 148.993 89.6836 149.439 89.8643C149.886 90.0451 150.365 90.1375 150.849 90.1358C151.333 90.1342 151.811 90.0384 152.256 89.8545C152.702 89.6706 153.105 89.4024 153.443 89.0662C153.781 88.7301 154.048 88.3325 154.229 87.8968C154.41 87.4611 154.502 86.9951 154.5 86.5254C154.498 86.0556 154.403 85.5903 154.219 85.1558C154.035 84.7213 153.765 84.3255 153.425 83.9917L153.421 83.9885L97.465 28.801L148.248 89.0849ZM148.248 89.0849C148.248 89.0847 148.247 89.0844 148.247 89.0842L147.248 88.0979L144.694 85.5769V89.1654V148.314C144.694 148.861 144.585 149.403 144.373 149.909C144.16 150.416 143.848 150.877 143.453 151.267C143.058 151.657 142.589 151.967 142.071 152.179C141.552 152.391 140.996 152.5 140.434 152.5H79.4624C78.9628 152.5 78.4687 152.403 78.0084 152.214C77.5482 152.025 77.1316 151.749 76.782 151.402C76.4324 151.055 76.1568 150.645 75.9699 150.195C75.783 149.745 75.6883 149.263 75.6907 148.778V148.771L75.6907 115.16L75.6907 115.157C75.683 111.592 74.2448 108.179 71.697 105.663C69.1499 103.149 65.7015 101.736 62.1075 101.729H62.1044H55.4441C51.8451 101.729 48.3894 103.138 45.836 105.653C43.282 108.169 41.8398 111.587 41.8321 115.157V115.16L41.8321 148.771L41.8321 148.778C41.8345 149.263 41.7398 149.745 41.5529 150.195C41.366 150.645 41.0903 151.055 40.7408 151.402C40.3912 151.749 39.9746 152.025 39.5143 152.214C39.0541 152.403 38.5599 152.5 38.0604 152.5H28.5199C27.3838 152.5 26.2981 152.054 25.5006 151.267C24.7037 150.48 24.2596 149.418 24.2596 148.314V89.1654V85.9312L21.7907 88.0203L21.0707 88.6295L21.0096 88.6813L20.9543 88.7392C20.3163 89.408 19.4545 89.8338 18.522 89.9353C17.6021 90.0355 16.6779 89.8131 15.911 89.3106C15.5107 89.0059 15.1803 88.6231 14.9399 88.1875C14.6936 87.7411 14.5472 87.2489 14.5097 86.7438C14.4721 86.2387 14.5442 85.7313 14.7216 85.255C14.8984 84.7805 15.1759 84.347 15.537 83.9841C15.5384 83.9827 15.5397 83.9814 15.541 83.9801L71.4889 28.801C74.9328 25.4086 79.6035 23.5 84.4769 23.5C89.3501 23.5 94.0204 25.4084 97.4643 28.8004L148.248 89.0849ZM111.755 102.054C111.443 102.362 111.264 102.784 111.264 103.229V115.592C111.264 116.036 111.443 116.459 111.755 116.767C112.067 117.075 112.486 117.244 112.918 117.244H125.467C125.9 117.244 126.319 117.075 126.63 116.767C126.943 116.459 127.122 116.036 127.122 115.592V108.154C127.122 106.403 126.417 104.728 125.169 103.496C123.922 102.265 122.234 101.577 120.479 101.577H112.918C112.486 101.577 112.067 101.746 111.755 102.054ZM111.755 119.824C111.443 120.132 111.264 120.554 111.264 120.999V133.539C111.264 133.984 111.443 134.406 111.755 134.714C112.067 135.022 112.486 135.192 112.918 135.192H120.479C122.234 135.192 123.922 134.503 125.169 133.272C126.417 132.04 127.122 130.365 127.122 128.614V120.999C127.122 120.779 127.078 120.562 126.993 120.36C126.908 120.158 126.785 119.976 126.63 119.824C126.476 119.671 126.293 119.551 126.094 119.47C125.895 119.388 125.682 119.346 125.467 119.346H112.918C112.486 119.346 112.067 119.516 111.755 119.824ZM95.2157 103.649C93.9678 104.88 93.2631 106.555 93.2631 108.306V115.769C93.2631 115.989 93.3069 116.206 93.3917 116.408C93.4764 116.61 93.6001 116.792 93.7545 116.945C93.9089 117.097 94.0912 117.217 94.2906 117.299C94.49 117.38 94.703 117.422 94.9174 117.422H107.441C107.873 117.422 108.292 117.252 108.604 116.945C108.916 116.636 109.095 116.214 109.095 115.769V103.381C109.095 102.937 108.916 102.514 108.604 102.206C108.292 101.898 107.873 101.729 107.441 101.729H99.9062C98.1506 101.729 96.463 102.417 95.2157 103.649ZM93.3917 120.36C93.3069 120.562 93.2631 120.779 93.2631 120.999V128.462C93.2631 130.213 93.9678 131.888 95.2157 133.12C96.463 134.351 98.1506 135.039 99.9062 135.039H107.467C107.899 135.039 108.318 134.87 108.629 134.562C108.942 134.254 109.121 133.831 109.121 133.387V120.999C109.121 120.554 108.942 120.132 108.629 119.824C108.318 119.516 107.899 119.346 107.467 119.346H94.9174C94.7025 119.346 94.4896 119.388 94.2906 119.47C94.0916 119.551 93.9092 119.671 93.7545 119.824C93.6001 119.976 93.4764 120.158 93.3917 120.36Z" fill="white" stroke="#3B7A67" stroke-width="3"/>
</svg>
